# xmcd CD database file
#
# Track frame offsets:
#	150
#	13247
#	28030
#	41330
#	57681
#	70493
#	81320
#	92464
#	104763
#	117267
#	128568
#	138946
#	150876
#	168981
#	180273
#	194418
#	206815
#	219738
#	231985
#	244779
#	255456
#	270025
#	282575
#
# Disc length: 3969 seconds
#
# Revision: 4
# Processed by: cddbd v1.5.2PL0 Copyright (c) Steve Scherf et al.
# Submitted via: CDex 1.81
#
DISCID=480f7f17
DTITLE=Various Artist - JazzPiano History - [CD01) Ragtime
DYEAR=1900
DGENRE=Jazz
TTITLE0=Scott Joplin - Original Rags
TTITLE1=Scott Joplin - Maple Leaf Rag
TTITLE2=Scott Joplin - The Entertainer
TTITLE3=Scott Joplin - Fig Leaf Rag
TTITLE4=Tom Turpin - St. Louis Rag
TTITLE5=James Scott - Grace And Beauty
TTITLE6=James Scott - Ragtime Oriole
TTITLE7=Joseph Lamb - American Beauty Rag
TTITLE8=Unknown - The Entertainer's Rag
TTITLE9=Unknown - Chinatown Rag
TTITLE10=Frank Banta - Jack Austin - Kitten On The Keys
TTITLE11=Frank Banta - Wonder Where My Baby Is Tonight
TTITLE12=Eubie Blake - Boll Weevil Blues
TTITLE13=J. Russell Robinson - That Da Da Strain
TTITLE14=Lemuel Fowler - Steppin' Ol' Fool
TTITLE15=Ferd (Jelly Roll) Morton - New Orleans (Blues) Joys
TTITLE16=Ferd (Jelly Roll) Morton - Frog-I-More Rag
TTITLE17=Ferd (Jelly Roll) Morton - Perfect Rag
TTITLE18=Ferd (Jelly Roll) Morton - Original Rags
TTITLE19=James P. Johnson - Harlem Strut
TTITLE20=James P. Johnson - Keep Off The Grass
TTITLE21=James P. Johnson - Carolina Shout
TTITLE22=Thomas "Fats" Waller - Muscle Shoals Blues
EXTD=
EXTT0=
EXTT1=
EXTT2=
EXTT3=
EXTT4=
EXTT5=
EXTT6=
EXTT7=
EXTT8=
EXTT9=
EXTT10=
EXTT11=
EXTT12=
EXTT13=
EXTT14=
EXTT15=
EXTT16=
EXTT17=
EXTT18=
EXTT19=
EXTT20=
EXTT21=
EXTT22=
PLAYORDER=
